<?xml version="1.0" standalone="no"?>
<!DOCTYPE svg PUBLIC "-//W3C//DTD SVG 20010904//EN"
 "http://www.w3.org/TR/2001/REC-SVG-20010904/DTD/svg10.dtd">
<svg version="1.0" xmlns="http://www.w3.org/2000/svg"
 width="48.000000pt" height="48.000000pt" viewBox="0 0 48.000000 48.000000"
 preserveAspectRatio="xMidYMid meet">

<g transform="translate(0.000000,48.000000) scale(0.100000,-0.100000)"
fill="#000000" stroke="none">
<path d="M20 320 c-5 -10 -10 -50 -10 -88 0 -92 7 -97 124 -96 50 1 100 2 111
3 11 1 49 -1 85 -5 36 -3 81 -2 100 3 31 8 35 13 38 47 2 21 -2 44 -8 50 -6 6
-52 13 -103 16 -91 5 -92 5 -95 32 -4 38 26 51 105 46 48 -3 68 -9 75 -21 10
-18 28 -23 28 -8 0 5 -7 16 -15 25 -13 12 -50 15 -220 15 -191 0 -205 -1 -215
-19z m210 -10 c5 -8 10 -25 10 -37 0 -32 29 -43 109 -43 84 0 101 -6 101 -34
0 -37 -19 -46 -95 -46 -76 0 -95 9 -95 47 0 22 -4 23 -65 23 -37 0 -65 -4 -65
-10 0 -5 25 -10 55 -10 56 0 69 -12 43 -38 -15 -15 -152 -16 -179 -2 -16 9
-19 22 -19 73 0 92 7 98 118 94 51 -2 76 -7 82 -17z"/>
</g>
</svg>
